# xmcd
#
# Track frame offsets: 
#        150
#        2402
#        15650
#        17390
#        28532
#        43892
#        56950
#        90225
#        106340
#        106747
#        119177
#        122980
#        141747
#        142477
#        156860
#        171057
#        184587
#        185380
#        196340
#        220870
#        234135
#        249755
#        265677
#        275742
#        288635
#        312487
#
# Disc length: 4380 seconds
#
# Revision: 0
# Processed by: cddbd v1.5.2PL0 Copyright (c) Steve Scherf et al.
# Submitted via: ExactAudioCopy v1.0b3
#
DISCID=78111a1a
DTITLE=Bob Wills and His Texas Playboys - Faded Love 1947-1973 [CD13)
DYEAR=2005
DGENRE=Country
TTITLE0=Intro
TTITLE1=Osage Stomp
TTITLE2=Talkin'
TTITLE3=Bubbles In My Beer
TTITLE4=Don't Let The Deal Go Down
TTITLE5=Deep Water
TTITLE6=South
TTITLE7=The Kind Of Love I Can't Forget
TTITLE8=Talkin'
TTITLE9=Corrine, Corrina
TTITLE10=Talkin'
TTITLE11=Sittin' On Top Of The World
TTITLE12=Talkin'
TTITLE13=Twin Guitar Special
TTITLE14=Twinkle, Twinkle Little Star
TTITLE15=Faded Love
TTITLE16=Talkin'
TTITLE17=Medley Of Fiddle Tunes
TTITLE18=My Mother's Eyes
TTITLE19=Steel Guitar Rag
TTITLE20=My Mary
TTITLE21=Dreamy Eyes Waltz
TTITLE22=Miss Molly
TTITLE23=Misery
TTITLE24=I Never Knew
TTITLE25=Sugar Moon
EXTD=
EXTT0=
EXTT1=
EXTT2=
EXTT3=
EXTT4=
EXTT5=
EXTT6=
EXTT7=
EXTT8=
EXTT9=
EXTT10=
EXTT11=
EXTT12=
EXTT13=
EXTT14=
EXTT15=
EXTT16=
EXTT17=
EXTT18=
EXTT19=
EXTT20=
EXTT21=
EXTT22=
EXTT23=
EXTT24=
EXTT25=
PLAYORDER=
